<svg xmlns="http://www.w3.org/2000/svg" viewBox="0 0 980 240" fill="none" role="img" aria-labelledby="sgLogoDarkTitle sgLogoDarkDesc">
  <title id="sgLogoDarkTitle">SimdiGetir Logo Dark</title>
  <desc id="sgLogoDarkDesc">SimdiGetir logo for dark theme with SG pin and lightning icon</desc>
  <defs>
    <linearGradient id="sgPinStrokeDark" x1="34" y1="16" x2="214" y2="224" gradientUnits="userSpaceOnUse">
      <stop offset="0" stop-color="#4A7AFF"/>
      <stop offset="1" stop-color="#32EBFF"/>
    </linearGradient>
    <linearGradient id="sgPinFillDark" x1="58" y1="28" x2="190" y2="204" gradientUnits="userSpaceOnUse">
      <stop offset="0" stop-color="#15306C"/>
      <stop offset="1" stop-color="#091738"/>
    </linearGradient>
    <linearGradient id="sgBoltDark" x1="100" y1="10" x2="188" y2="210" gradientUnits="userSpaceOnUse">
      <stop offset="0" stop-color="#FFFBD3"/>
      <stop offset="0.52" stop-color="#FFD95F"/>
      <stop offset="1" stop-color="#FF9D00"/>
    </linearGradient>
    <linearGradient id="sgWordmarkDark" x1="240" y1="54" x2="924" y2="176" gradientUnits="userSpaceOnUse">
      <stop offset="0" stop-color="#FFF5C4"/>
      <stop offset="0.5" stop-color="#FFD95A"/>
      <stop offset="1" stop-color="#FFAC00"/>
    </linearGradient>
    <filter id="sgGlowBlueDark" x="0" y="0" width="260" height="240" color-interpolation-filters="sRGB">
      <feGaussianBlur stdDeviation="9" result="blur"/>
      <feColorMatrix in="blur" type="matrix" values="0 0 0 0 0.09 0 0 0 0 0.56 0 0 0 0 1 0 0 0 0.62 0"/>
      <feBlend in="SourceGraphic"/>
    </filter>
    <filter id="sgGlowGoldDark" x="66" y="0" width="914" height="214" color-interpolation-filters="sRGB">
      <feGaussianBlur stdDeviation="6" result="blur"/>
      <feColorMatrix in="blur" type="matrix" values="0 0 0 0 1 0 0 0 0 0.86 0 0 0 0 0.28 0 0 0 0.56 0"/>
      <feBlend in="SourceGraphic"/>
    </filter>
  </defs>

  <g filter="url(#sgGlowBlueDark)">
    <path d="M124 18C79 18 42 55 42 100C42 147 72 179 124 224C176 179 206 147 206 100C206 55 169 18 124 18Z" fill="url(#sgPinFillDark)" stroke="url(#sgPinStrokeDark)" stroke-width="6"/>
    <circle cx="124" cy="100" r="50" fill="#0C2252"/>
    <text x="84" y="118" font-family="'Segoe UI Black', 'Arial Black', Arial, sans-serif" font-size="52" font-style="italic" font-weight="900" fill="#FFFFFF">S</text>
    <text x="118" y="118" font-family="'Segoe UI Black', 'Arial Black', Arial, sans-serif" font-size="52" font-style="italic" font-weight="900" fill="#FFFFFF">G</text>
  </g>

  <g filter="url(#sgGlowGoldDark)">
    <path d="M136 4L94 95H143L103 228L206 88H154L194 4H136Z" fill="url(#sgBoltDark)" stroke="#FFF4BA" stroke-width="2"/>
    <text x="236" y="152" font-family="'Segoe UI Black', 'Arial Black', Arial, sans-serif" font-size="120" font-style="italic" font-weight="900" letter-spacing="-1.4" fill="url(#sgWordmarkDark)">SimdiGetir</text>
    <path d="M252 182C368 204 650 204 926 170" stroke="url(#sgWordmarkDark)" stroke-width="10" stroke-linecap="round"/>
  </g>
</svg>
